<?xml version="1.0" encoding="utf-8"?>
<!-- Generator: Adobe Illustrator 21.0.0, SVG Export Plug-In . SVG Version: 6.00 Build 0)  -->
<svg version="1.1" id="Layer_1" xmlns="http://www.w3.org/2000/svg" xmlns:xlink="http://www.w3.org/1999/xlink" x="0px" y="0px"
	 viewBox="0 0 40 40" style="enable-background:new 0 0 40 40;" xml:space="preserve">
<title>Artboard 1</title>
<path d="M25.2,15.3c-0.3,0.5-0.7,0.9-1.2,1.3c0-0.3-0.6-0.8-1.4-0.8s-1.2,0.3-1.2,1c0,1.1,0.5,1.6,1.4,2.6c1.1,1.1,1.8,2,1.8,2.9
	c0,1.9-2.2,3.5-4,3.5c-0.4,0-0.9-0.1-1.3-0.3c0.1-0.7,0.4-1.4,0.9-1.9c0.4,0.7,1.1,1.1,1.9,1c0.7,0,1.2-0.5,1.2-1.1
	c0-0.7-0.7-1.6-1.8-2.7s-1.6-1.8-1.6-2.8c0-2,2.1-3.2,3.8-3.2C24.4,14.6,24.9,14.9,25.2,15.3z M18.6,24.3c-0.1,0.5-0.4,1-0.9,1.1
	c-0.9,0.2-1.9,0.3-2.9,0.2c0.2-0.4,0.4-0.8,0.5-1.2c0.1-0.6,0.3-1.4,0.6-3.7s0.5-3.7,0.6-4.7c-0.5,0-1,0-1.5,0.1
	c0.3-0.4,0.6-0.8,1-1.1c0.8-0.3,1.7-0.3,2.5-0.2c-0.5,1.7-0.8,3.4-1,5.2c-0.3,2.4-0.5,3.1-0.6,4.4C17.5,24.5,18,24.4,18.6,24.3
	L18.6,24.3z M8.2,19.7c0.3,0.1,0.6,0.1,0.9,0c0.4,0,0.8-0.1,1.2-0.2c0.8-0.4,1.2-1.2,1.2-2.1c0-1-0.8-1.8-2.7-1.8
	C8.6,16.9,8.4,18.4,8.2,19.7z M29.3,29.8c0-0.7-0.7-1.2-1.7-1.2c-0.9,0-1.8,0.2-2.6,0.5c0.8,0.6,1.2,1.5,1.3,2.5c0,0,0,0.2,0,0.4
	C27.8,31.7,29.3,31,29.3,29.8z M18.6,31.2c0.7-0.3,1.3-0.6,2.2-1c-0.4-0.6-1.2-1-1.9-0.9c-0.7,0-1.3,0.1-1.9,0.5
	C17.4,30.3,17.9,30.8,18.6,31.2z M21,32c0.1-0.2,0.1-0.3,0.1-0.5c0-0.2,0-0.5-0.1-0.7c-0.6,0.3-1.2,0.5-1.7,0.8
	C19.8,31.8,20.4,31.9,21,32z M13.8,32.2c0-0.9,0.6-1.8,1.4-2.2c-0.7-0.6-1.3-1.4-1.7-2.2c-1.6,0.5-2.7,1.3-2.7,2.5
	c0,1.2,0.9,2.2,2.1,2.2c0.1,0,0.2,0,0.3,0c0.2,0,0.4,0,0.6,0C13.8,32.4,13.8,32.2,13.8,32.2L13.8,32.2z M15.5,32.2
	c0.7-0.2,1.4-0.4,2-0.6c-0.6-0.3-1.1-0.6-1.6-1C15.6,31,15.5,31.6,15.5,32.2L15.5,32.2z M16.4,29.3c0.8-0.3,1.6-0.4,2.4-0.4
	c1.1,0,2.1,0.3,2.9,1l1.5-0.6c-1.2-1.2-3.1-1.9-5.8-1.9c-0.8,0-1.6,0.1-2.3,0.2C15.7,28.2,16,28.7,16.4,29.3L16.4,29.3z M23.3,32.2
	h1.2c0-0.9-0.2-1.9-0.8-2.6c-0.6,0.2-1,0.4-1.5,0.6c0.3,0.3,0.5,0.8,0.5,1.3c0,0.2,0,0.4-0.1,0.7C22.8,32.2,23.1,32.2,23.3,32.2
	L23.3,32.2z M15.6,32.8c0.2,1.3,2,2.6,4.4,2.6s4-1.3,4.4-2.7c-0.4,0-0.7,0-1.1,0s-0.7,0-1.1,0c-0.6,0.7-1.4,1.1-2.3,1
	c-0.6,0-1.1-0.3-1.5-0.8c0-0.1,0-0.2,0.1-0.2c0.3,0.2,0.6,0.3,0.9,0.2c0.5,0,0.9-0.2,1.2-0.5c-0.8-0.1-1.6-0.3-2.4-0.6
	C17.4,32.3,16.5,32.6,15.6,32.8L15.6,32.8z M29.3,19.9c-0.3,2.4-0.4,3.5-0.4,4.4c1.6,0.2,3.2,0.1,4-0.7c0.9-1.1,1.4-2.5,1.4-3.9
	c0.1-1-0.2-2.1-0.9-2.9c-0.9-0.9-1.5-1-3.7-1.1C29.6,17,29.4,18.7,29.3,19.9z M31.3,12.9c0.6,0,1.5-0.4,1.5-1.1
	c0-0.4-0.4-0.7-0.8-0.6c0,0,0,0,0,0c-0.8,0-1.4,0.4-1.7,1.6C30.6,12.8,30.9,12.9,31.3,12.9L31.3,12.9z M17.5,7c0,0.8,0.4,1.6,1.1,2
	c0.5-0.4,1-0.8,1.5-1.2C19.2,7.5,18.4,7.2,17.5,7z M13.2,9.2c1.3,0.1,2.5,0.5,3.6,1.1c0.4-0.3,0.6-0.5,1-0.8c-1.2-0.4-2-1.4-2.1-2.7
	c-1,0-2.1,0.2-3,0.6c-0.8,0.4-1.3,1.2-1.4,2.1C11.9,9.4,12.6,9.3,13.2,9.2z M13.2,9.8c-0.7,0-1.3,0.2-1.9,0.5c0,1.1,0.9,2,2.1,2.1
	c0.8,0,1.4-0.3,2.9-1.4C15.4,10.2,14.3,9.8,13.2,9.8L13.2,9.8z M9.6,9.9c0-1.7,2.2-3.6,6.2-3.6C16,4.8,18.1,4,20.2,4
	c2,0.1,3.9,0.8,5.5,2c3,0,4.9,1.4,4.9,2.6c0,0.5-0.5,1-1.3,1c-0.3,0-0.7-0.2-0.7-0.5c0.4-0.1,0.8-0.4,0.8-0.8c0-1.1-1.1-1.7-3.1-1.7
	c1,1,1.6,2.3,1.6,3.7c0,0.5-0.1,1-0.4,1.4c0.5,0.3,1.1,0.6,1.7,0.8c0.6-1.1,1.6-1.7,2.8-1.8c1.2,0,1.8,0.4,1.8,1.1s-1.1,1.4-2.5,1.4
	c-0.5,0-0.8,0-1.2,0c-0.1,0.5-0.2,0.9-0.3,1.5c2.2,0,4,0,5.1,1.1c0.7,0.8,1.1,1.9,1,2.9c-0.1,1.9-0.9,3.8-2.4,5.1
	c-1.3,1.1-2.1,1.7-5.7,1.7c-0.5,0-0.9,0-1.4-0.1c0.2-0.3,0.4-0.7,0.4-1.1c0.2-0.7,0.4-2.2,0.7-4.6c0.2-1.7,0.4-2.9,0.5-4.1
	c-1.1,0-1.4,0.1-1.7,0.3c-0.3,0.1-0.4,0.4-0.4,0.7c0,0.2,0.1,0.5,0.2,0.6c-0.4,0.4-0.8,0.7-1.3,1c-0.2-0.3-0.3-0.6-0.4-0.9
	c0.1-0.7,0.6-1.4,1.2-1.8c0.7-0.6,1.6-1,2.5-1c0.2-0.6,0.4-1.1,0.6-1.7c-0.6-0.2-1.2-0.4-1.8-0.8c-0.9,0.8-2.1,1.3-3.3,1.2
	c-2.3-0.1-4.5-0.8-6.4-2c-1.2,0.8-2.6,1.3-4.1,1.3c-1.3,0.1-2.6-0.4-3.4-1.4c-0.5,1-0.9,2.1-1,3.2c2,0,3,0.2,3.6,0.7
	c0.3,0.3,0.5,0.7,0.6,1.2c0,1.5-0.9,2.5-2.3,3.5c0.9,1.4,2.8,4.8,4,6.9c0.9-0.1,1.8-0.2,2.7-0.1c2.5,0,4.9,0.6,7,1.9
	c1.1-0.4,2.3-0.7,3.5-0.8c2,0,3.1,0.6,3.1,1.5c0,1.5-2.1,2.8-5,3.2c-0.7,2.3-4,3.5-6.4,3.4c-3.4,0-5.5-1.3-6-3c-0.2,0-0.5,0-0.7,0
	c-2.5,0-4.3-1.1-4.3-2.7s1.4-2.7,4.1-3.2c-1.7-2.8-3-5.1-3.8-6.4l-1.2,0c-0.2,1.6-0.4,2.9-0.5,3.8c0.5,0,0.9,0,1.4-0.1
	c-0.2,0.5-0.6,0.8-1,1.1c-0.4,0.1-0.9,0.2-1.3,0.2c-0.6,0-1.2,0-1.4,0c0.3-0.4,0.5-0.8,0.6-1.2c0.1-0.4,0.4-2.2,0.8-4.5
	s0.5-3.5,0.7-4.6c-0.5-0.1-1,0-1.4,0.2c-0.2,0.2-0.4,0.6-0.3,0.9c0,0.2,0,0.3,0.1,0.5c-0.3,0.2-1,0.5-1.3,0.7
	C4.1,17.7,4,17.4,4,17.1c0-0.5,0.2-0.9,0.6-1.2c0.8-0.7,1.8-1.2,2.8-1.3c0.3-1.6,1-3,2.2-4C9.6,10.4,9.6,10.2,9.6,9.9L9.6,9.9z
	 M21.3,8.5c-0.5,0.4-0.9,0.7-1.4,1.1c0.4,0.1,0.9,0.2,1.4,0.2c0.5,0,1-0.1,1.4-0.4C22.1,8.9,21.8,8.8,21.3,8.5z M18.1,11.1
	c1.4,0.9,3,1.5,4.7,1.7c1.1,0,2.2-0.5,2.9-1.3c-0.6-0.4-1.4-1-2-1.4c-0.5,0.3-1,0.4-1.6,0.4c-0.9,0-1.8-0.1-2.7-0.3
	C18.9,10.5,18.5,10.8,18.1,11.1z M21.5,6.2c-0.1,0-0.1-0.1,0-0.1c0.6-0.1,1.2,0,1.7,0.3c0.5-0.1,1-0.2,1.6-0.2
	c-1.2-0.9-2.7-1.3-4.2-1.3c-1.4,0-2.8,0.7-3,1.8c1,0.2,2,0.6,3,1c0.6-0.4,1.2-0.7,1.9-0.9C22.1,6.4,21.8,6.2,21.5,6.2z M24.7,8.6
	c0,0.4-0.1,0.7-0.4,0.9l1.9,1.3c0.4-0.5,0.5-1.1,0.5-1.8c-0.1-0.9-0.5-1.8-1.2-2.4c-0.5,0-1,0.1-1.5,0.3C24.4,7.4,24.7,8,24.7,8.6z
	 M23.3,8.1c0-0.3-0.1-0.5-0.2-0.8c-0.5,0.2-0.9,0.5-1.3,0.8c0.5,0.2,0.9,0.5,1.3,0.7C23.3,8.6,23.4,8.4,23.3,8.1z"/>
</svg>
