<svg width="23" height="24" viewBox="0 0 23 24" fill="none" xmlns="http://www.w3.org/2000/svg">
<path d="M7.875 11.4731C7.09875 11.4731 6.46875 12.1031 6.46875 12.8794C6.46875 13.6556 7.09875 14.2856 7.875 14.2856C8.65125 14.2856 9.28125 13.6556 9.28125 12.8794C9.28125 12.1031 8.65125 11.4731 7.875 11.4731ZM14.625 11.4731C13.8488 11.4731 13.2188 12.1031 13.2188 12.8794C13.2188 13.6556 13.8488 14.2856 14.625 14.2856C15.4012 14.2856 16.0312 13.6556 16.0312 12.8794C16.0312 12.1031 15.4012 11.4731 14.625 11.4731ZM11.25 0.504395C5.03437 0.504395 0 5.53877 0 11.7544C0 17.97 5.03437 23.0044 11.25 23.0044C17.4656 23.0044 22.5 17.97 22.5 11.7544C22.5 5.53877 17.4656 0.504395 11.25 0.504395ZM11.25 20.7544C6.28875 20.7544 2.25 16.7156 2.25 11.7544C2.25 11.4281 2.2725 11.1075 2.30625 10.7925C4.95563 9.61689 7.07063 7.44564 8.1675 4.75127C10.2038 7.62002 13.5506 9.50439 17.3419 9.50439C18.2138 9.50439 19.0631 9.39752 19.8731 9.20627C20.115 10.0163 20.25 10.8713 20.25 11.7544C20.25 16.7156 16.2113 20.7544 11.25 20.7544Z" fill="black"/>
</svg>
