<svg width="1216" height="342" viewBox="0 0 1216 342" fill="none" xmlns="http://www.w3.org/2000/svg" class="home__hero-lockup home__hero-lockup--desktop">
<path d="M51.9518 160.086H81.0566L115.374 60.6083L149.692 160.086H178.797L230.707 6.95984H195.738L164.244 109.913L130.144 6.52545H101.473L67.373 109.913L35.879 6.95984H0.0410156L51.9518 160.086Z" fill="#EDC92D"/>
<path d="M282.106 161.606C303.174 161.606 318.813 153.353 329.673 139.886L310.776 123.162C301.654 131.633 293.617 135.108 282.54 135.108C267.771 135.108 257.345 127.289 254.087 112.302H335.103C335.32 109.261 335.537 106.22 335.537 103.614C335.537 70.5995 317.727 40.4087 278.848 40.4087C244.965 40.4087 221.29 67.7759 221.29 101.007V101.442C221.29 137.063 247.137 161.606 282.106 161.606ZM253.653 91.6679C256.259 76.6811 265.164 66.9071 278.848 66.9071C292.749 66.9071 301.437 76.8983 303.391 91.6679H253.653Z" fill="#EDC92D"/>
<path d="M350.802 159H383.816V0.443848H350.802V159Z" fill="#EDC92D"/>
<path d="M458.915 161.606C482.155 161.606 495.187 152.701 506.482 140.321L487.151 120.773C479.115 128.375 471.513 133.153 460.435 133.153C442.408 133.153 430.896 118.818 430.896 101.007V100.573C430.896 83.4143 442.625 68.8619 459.132 68.8619C470.861 68.8619 478.246 73.8575 485.631 81.6767L505.83 59.9566C494.97 47.7935 481.287 40.4087 459.349 40.4087C423.729 40.4087 398.316 67.7759 398.316 101.007V101.442C398.316 134.673 423.946 161.606 458.915 161.606Z" fill="#EDC92D"/>
<path d="M571.129 161.606C607.402 161.606 634.335 134.456 634.335 101.007V100.573C634.335 67.1243 607.619 40.4087 571.564 40.4087C535.291 40.4087 508.359 67.5586 508.359 101.007V101.442C508.359 134.891 535.074 161.606 571.129 161.606ZM571.564 133.153C553.319 133.153 540.939 118.166 540.939 101.007V100.573C540.939 83.4143 552.233 68.8619 571.129 68.8619C589.374 68.8619 601.755 83.8487 601.755 101.007V101.442C601.755 118.601 590.46 133.153 571.564 133.153Z" fill="#EDC92D"/>
<path d="M647.38 159H680.395V94.0571C680.395 78.4187 687.997 70.3823 700.377 70.3823C712.757 70.3823 719.708 78.4187 719.708 94.0571V159H752.722V94.0571C752.722 78.4187 760.324 70.3823 772.705 70.3823C785.085 70.3823 792.035 78.4187 792.035 94.0571V159H825.05V83.1971C825.05 55.1783 810.28 40.4087 785.737 40.4087C769.881 40.4087 757.718 46.9246 747.509 58.8707C741.428 47.1418 729.916 40.4087 714.712 40.4087C697.988 40.4087 687.997 49.3139 680.395 59.0879V42.5807H647.38V159Z" fill="#EDC92D"/>
<path d="M898.071 161.606C919.14 161.606 934.778 153.353 945.638 139.886L926.742 123.162C917.619 131.633 909.583 135.108 898.506 135.108C883.736 135.108 873.311 127.289 870.053 112.302H951.068C951.285 109.261 951.503 106.22 951.503 103.614C951.503 70.5995 933.692 40.4087 894.813 40.4087C860.93 40.4087 837.255 67.7759 837.255 101.007V101.442C837.255 137.063 863.102 161.606 898.071 161.606ZM869.618 91.6679C872.225 76.6811 881.13 66.9071 894.813 66.9071C908.714 66.9071 917.402 76.8983 919.357 91.6679H869.618Z" fill="#EDC92D"/>
<path d="M1058.82 160.955C1069.9 160.955 1077.93 158.348 1084.88 154.221V127.723C1080.1 130.329 1074.67 131.85 1068.59 131.85C1061.21 131.85 1057.95 128.157 1057.95 120.555V70.8167H1085.32V42.5807H1057.95V12.8242H1024.93V42.5807H1011.03V70.8167H1024.93V125.985C1024.93 152.918 1038.62 160.955 1058.82 160.955Z" fill="#EDC92D"/>
<path d="M1152.73 161.606C1189.01 161.606 1215.94 134.456 1215.94 101.007V100.573C1215.94 67.1243 1189.22 40.4087 1153.17 40.4087C1116.9 40.4087 1089.96 67.5586 1089.96 101.007V101.442C1089.96 134.891 1116.68 161.606 1152.73 161.606ZM1153.17 133.153C1134.92 133.153 1122.54 118.166 1122.54 101.007V100.573C1122.54 83.4143 1133.84 68.8619 1152.73 68.8619C1170.98 68.8619 1183.36 83.8487 1183.36 101.007V101.442C1183.36 118.601 1172.06 133.153 1153.17 133.153Z" fill="#EDC92D"/>
<path d="M355.757 187.082H425.306C444.646 187.082 459.644 192.538 469.645 202.516C478.142 210.988 482.686 222.945 482.686 237.288V237.724C482.686 262.285 469.434 277.711 450.087 284.882L487.254 339.211H448.13L415.523 290.533H389.23V339.211H355.757V187.082ZM423.131 260.976C439.431 260.976 448.777 252.285 448.777 239.462V239.026C448.777 224.684 438.776 217.294 422.476 217.294H389.23V260.945H423.131V260.976Z" fill="white"/>
<path d="M514.42 187.082H547.893V339.211H514.42V187.082Z" fill="white"/>
<path d="M574.841 317.043L594.625 293.347C608.321 304.65 622.688 311.821 640.047 311.821C653.744 311.821 661.999 306.364 661.999 297.478V297.042C661.999 288.569 656.784 284.22 631.356 277.703C600.713 269.909 580.937 261.405 580.937 231.192V230.764C580.937 203.162 603.106 184.907 634.186 184.907C656.355 184.907 675.266 191.86 690.693 204.246L673.302 229.431C659.824 220.077 646.564 214.465 633.741 214.465C620.918 214.465 614.183 220.334 614.183 227.716V228.152C614.183 238.153 620.7 241.403 647.001 248.146C677.862 256.19 695.253 267.274 695.253 293.784V294.22C695.253 324.433 672.218 341.378 639.393 341.378C615.617 341.468 592.64 332.806 574.841 317.043V317.043Z" fill="white"/>
<path d="M720.034 187.082H779.371C827.186 187.082 860.222 219.898 860.222 262.691V263.127C860.222 305.944 827.186 339.196 779.371 339.196H720.034V187.082ZM779.371 308.999C806.755 308.999 825.23 290.526 825.23 263.579V263.143C825.23 236.197 806.755 217.287 779.371 217.287H753.506V308.999H779.371V308.999Z" fill="white"/>
</svg>
