<svg width="952" height="524" viewBox="0 0 952 524" fill="none" xmlns="http://www.w3.org/2000/svg" class="home__hero-lockup home__hero-lockup--mobile">
<path d="M52.1696 160.568H81.2744L115.592 61.0902L149.91 160.568H179.014L230.925 7.44178H195.956L164.462 110.395L130.362 7.00738H101.691L67.5908 110.395L36.0968 7.44178H0.258789L52.1696 160.568Z" fill="#EDC92D"/>
<path d="M282.324 162.088C303.392 162.088 319.03 153.835 329.89 140.368L310.994 123.644C301.872 132.115 293.835 135.59 282.758 135.59C267.988 135.59 257.563 127.771 254.305 112.784H335.32C335.538 109.743 335.755 106.702 335.755 104.096C335.755 71.0814 317.944 40.8906 279.066 40.8906C245.182 40.8906 221.508 68.2578 221.508 101.489V101.924C221.508 137.545 247.354 162.088 282.324 162.088ZM253.87 92.1498C256.477 77.163 265.382 67.389 279.066 67.389C292.966 67.389 301.654 77.3802 303.609 92.1498H253.87Z" fill="#EDC92D"/>
<path d="M351.02 159.482H384.034V0.925781H351.02V159.482Z" fill="#EDC92D"/>
<path d="M459.133 162.088C482.373 162.088 495.405 153.183 506.7 140.803L487.369 121.255C479.332 128.857 471.73 133.635 460.653 133.635C442.626 133.635 431.114 119.3 431.114 101.489V101.055C431.114 83.8962 442.843 69.3438 459.35 69.3438C471.079 69.3438 478.464 74.3394 485.848 82.1586L506.048 60.4386C495.188 48.2754 481.504 40.8906 459.567 40.8906C423.946 40.8906 398.534 68.2578 398.534 101.489V101.924C398.534 135.155 424.164 162.088 459.133 162.088Z" fill="#EDC92D"/>
<path d="M571.347 162.088C607.62 162.088 634.552 134.938 634.552 101.489V101.055C634.552 67.6062 607.837 40.8906 571.782 40.8906C535.509 40.8906 508.576 68.0406 508.576 101.489V101.924C508.576 135.373 535.292 162.088 571.347 162.088ZM571.782 133.635C553.537 133.635 541.156 118.648 541.156 101.489V101.055C541.156 83.8962 552.451 69.3438 571.347 69.3438C589.592 69.3438 601.972 84.3306 601.972 101.489V101.924C601.972 119.083 590.678 133.635 571.782 133.635Z" fill="#EDC92D"/>
<path d="M647.598 159.482H680.612V94.539C680.612 78.9006 688.214 70.8642 700.595 70.8642C712.975 70.8642 719.926 78.9006 719.926 94.539V159.482H752.94V94.539C752.94 78.9006 760.542 70.8642 772.922 70.8642C785.303 70.8642 792.253 78.9006 792.253 94.539V159.482H825.268V83.679C825.268 55.6602 810.498 40.8906 785.954 40.8906C770.099 40.8906 757.936 47.4066 747.727 59.3526C741.646 47.6238 730.134 40.8906 714.93 40.8906C698.206 40.8906 688.214 49.7958 680.612 59.5698V43.0626H647.598V159.482Z" fill="#EDC92D"/>
<path d="M898.289 162.088C919.358 162.088 934.996 153.835 945.856 140.368L926.96 123.644C917.837 132.115 909.801 135.59 898.724 135.59C883.954 135.59 873.528 127.771 870.27 112.784H951.286C951.503 109.743 951.72 106.702 951.72 104.096C951.72 71.0814 933.91 40.8906 895.031 40.8906C861.148 40.8906 837.473 68.2578 837.473 101.489V101.924C837.473 137.545 863.32 162.088 898.289 162.088ZM869.836 92.1498C872.442 77.163 881.348 67.389 895.031 67.389C908.932 67.389 917.62 77.3802 919.575 92.1498H869.836Z" fill="#EDC92D"/>
<path d="M421.322 338.245C432.399 338.245 440.435 335.638 447.386 331.511V305.013C442.607 307.619 437.177 309.14 431.096 309.14C423.711 309.14 420.453 305.447 420.453 297.845V248.107H447.82V219.871H420.453V190.114H387.438V219.871H373.538V248.107H387.438V303.275C387.438 330.208 401.122 338.245 421.322 338.245Z" fill="#EDC92D"/>
<path d="M515.237 338.896C551.509 338.896 578.442 311.746 578.442 278.297V277.863C578.442 244.414 551.726 217.699 515.671 217.699C479.399 217.699 452.466 244.849 452.466 278.297V278.732C452.466 312.181 479.182 338.896 515.237 338.896ZM515.671 310.443C497.426 310.443 485.046 295.456 485.046 278.297V277.863C485.046 260.704 496.34 246.152 515.237 246.152C533.482 246.152 545.862 261.139 545.862 278.297V278.732C545.862 295.891 534.568 310.443 515.671 310.443Z" fill="#EDC92D"/>
<path d="M223.757 369.097H293.306C312.646 369.097 327.644 374.553 337.645 384.531C346.142 393.004 350.686 404.961 350.686 419.303V419.739C350.686 444.301 337.434 459.726 318.087 466.897L355.254 521.227H316.13L283.523 472.549H257.23V521.227H223.757V369.097ZM291.131 442.991C307.431 442.991 316.777 434.3 316.777 421.478V421.041C316.777 406.699 306.776 399.309 290.476 399.309H257.23V442.96H291.131V442.991Z" fill="white"/>
<path d="M382.42 369.097H415.893V521.227H382.42V369.097Z" fill="white"/>
<path d="M442.841 499.058L462.625 475.362C476.321 486.665 490.688 493.836 508.047 493.836C521.744 493.836 529.999 488.38 529.999 479.494V479.057C529.999 470.584 524.784 466.235 499.356 459.718C468.713 451.924 448.937 443.42 448.937 413.207V412.779C448.937 385.178 471.106 366.922 502.186 366.922C524.355 366.922 543.266 373.875 558.693 386.261L541.302 411.446C527.824 402.092 514.564 396.48 501.741 396.48C488.918 396.48 482.183 402.349 482.183 409.731V410.167C482.183 420.168 488.7 423.418 515.001 430.161C545.862 438.205 563.253 449.289 563.253 475.799V476.235C563.253 506.448 540.218 523.393 507.393 523.393C483.617 523.483 460.64 514.821 442.841 499.058V499.058Z" fill="white"/>
<path d="M588.034 369.097H647.371C695.186 369.097 728.222 401.913 728.222 444.706V445.142C728.222 487.959 695.186 521.211 647.371 521.211H588.034V369.097ZM647.371 491.014C674.755 491.014 693.23 472.541 693.23 445.594V445.158C693.23 418.212 674.755 399.302 647.371 399.302H621.506V491.014H647.371V491.014Z" fill="white"/>
</svg>
